<svg width="29" height="28" viewBox="0 0 29 28" fill="none" xmlns="http://www.w3.org/2000/svg">
<path d="M14.0007 0.00382216C14.0007 0.00382216 22.2529 -0.365174 26.628 7.8999H13.2985C13.2985 7.8999 10.783 7.81911 8.63415 10.8599C8.01688 12.1363 7.35338 13.451 8.09796 16.042C7.02535 14.2313 2.4035 6.21234 2.4035 6.21234C2.4035 6.21234 5.6635 0.330569 14.0006 0.00382216H14.0007Z" fill="#EF3F36"/>
<path d="M26.1996 20.9856C26.1996 20.9856 22.3917 28.2935 13.0246 27.9321C14.182 25.9369 19.6911 16.4302 19.6911 16.4302C19.6911 16.4302 21.0222 14.3005 19.452 10.9253C18.6533 9.75278 17.8392 8.52647 15.2159 7.87287C17.3263 7.85377 26.6047 7.87287 26.6047 7.87287C26.6047 7.87287 30.0807 13.6278 26.1996 20.9856Z" fill="#FCD900"/>
<path d="M1.85937 21.0434C1.85937 21.0434 -2.58893 14.1045 2.41101 6.20074C3.56459 8.19595 9.07377 17.7027 9.07377 17.7027C9.07377 17.7027 10.2621 19.9171 13.9773 20.2475C15.3933 20.1438 16.867 20.0554 18.7498 18.1217C17.7118 19.9517 13.0551 27.9476 13.0551 27.9476C13.0551 27.9476 6.3114 28.0707 1.85926 21.0434H1.85937Z" fill="#61BC5B"/>
<path d="M13.0208 28.0013L14.8957 20.2053C14.8957 20.2053 16.9559 20.0437 18.6844 18.1563C17.6118 20.0362 13.0208 28.0013 13.0208 28.0013Z" fill="#5AB055"/>
<path d="M7.71985 14.089C7.71985 10.6523 10.517 7.86523 13.9659 7.86523C17.4149 7.86523 20.212 10.6523 20.212 14.089C20.212 17.5257 17.4149 20.3127 13.9659 20.3127C10.517 20.3089 7.71985 17.5257 7.71985 14.089Z" fill="white"/>
<path d="M8.76532 14.0891C8.76532 11.229 11.0918 8.90704 13.966 8.90704C16.8363 8.90704 19.1666 11.2252 19.1666 14.0891C19.1666 16.9492 16.8403 19.2712 13.966 19.2712C11.0956 19.2712 8.76532 16.9492 8.76532 14.0891Z" fill="url(#paint0_linear_1_12240)"/>
<path d="M26.6008 7.87685L18.881 10.1334C18.881 10.1334 17.7159 8.43035 15.2121 7.87685C17.3841 7.86528 26.6008 7.87685 26.6008 7.87685Z" fill="#EACA05"/>
<path d="M7.94753 15.7577C6.86331 13.8855 2.4035 6.21234 2.4035 6.21234L8.12107 11.848C8.12107 11.848 7.53459 13.0513 7.75459 14.7735L7.94742 15.7577H7.94753Z" fill="#DF3A32"/>
<defs>
<linearGradient id="paint0_linear_1_12240" x1="13.9657" y1="8.98021" x2="13.9657" y2="18.9592" gradientUnits="userSpaceOnUse">
<stop stop-color="#86BBE5"/>
<stop offset="1" stop-color="#1072BA"/>
</linearGradient>
</defs>
</svg>
