<svg width="28" height="28" viewBox="0 0 28 28" fill="none" xmlns="http://www.w3.org/2000/svg">
<path d="M9.39531 21.8859C7.84219 20.0594 6.84688 17.3578 6.78125 14.3281V13.6719C6.84688 10.6422 7.85313 7.94063 9.39531 6.11406C11.4078 3.51094 14.3609 2.34063 17.6969 2.34063C19.7531 2.34063 21.6891 2.48281 23.3297 3.57656C20.8687 1.35625 17.6203 0.0109375 14.0547 0H14C6.26719 0 0 6.26719 0 14C0 21.5031 5.90625 27.6391 13.3328 27.9891C13.5516 28 13.7812 28 14 28C17.5875 28 20.8578 26.6547 23.3297 24.4344C21.6891 25.5281 19.8625 25.5719 17.8062 25.5719C14.4813 25.5828 11.3969 24.5 9.39531 21.8859Z" fill="url(#paint0_linear_1_12280)"/>
<path d="M9.39532 6.11407C10.675 4.59376 12.3375 3.68595 14.1531 3.68595C18.2328 3.68595 21.5359 8.30158 21.5359 14.011C21.5359 19.7203 18.2328 24.336 14.1531 24.336C12.3375 24.336 10.6859 23.4172 9.39532 21.9078C11.4078 24.511 14.3938 26.1735 17.7188 26.1735C19.7641 26.1735 21.6891 25.55 23.3297 24.4563C26.1953 21.875 28 18.1453 28 14C28 9.8547 26.1953 6.12501 23.3297 3.56564C21.6891 2.47189 19.775 1.84845 17.7188 1.84845C14.3828 1.84845 11.3969 3.50001 9.39532 6.11407Z" fill="url(#paint1_linear_1_12280)"/>
<defs>
<linearGradient id="paint0_linear_1_12280" x1="11.6655" y1="0.4564" x2="11.6655" y2="27.5926" gradientUnits="userSpaceOnUse">
<stop offset="0.3" stop-color="#FF1B2D"/>
<stop offset="0.4381" stop-color="#FA1A2C"/>
<stop offset="0.5939" stop-color="#ED1528"/>
<stop offset="0.7581" stop-color="#D60E21"/>
<stop offset="0.9272" stop-color="#B70519"/>
<stop offset="1" stop-color="#A70014"/>
</linearGradient>
<linearGradient id="paint1_linear_1_12280" x1="18.6958" y1="2.05594" x2="18.6958" y2="26.0564" gradientUnits="userSpaceOnUse">
<stop stop-color="#9C0000"/>
<stop offset="0.7" stop-color="#FF4B4B"/>
</linearGradient>
</defs>
</svg>
